<?xml version="1.0" encoding="UTF-8" standalone="no"?>
<!-- Created with Inkscape (http://www.inkscape.org/) -->
<svg xmlns:dc="http://purl.org/dc/elements/1.1/" xmlns:cc="http://creativecommons.org/ns#" xmlns:rdf="http://www.w3.org/1999/02/22-rdf-syntax-ns#" xmlns:svg="http://www.w3.org/2000/svg" xmlns="http://www.w3.org/2000/svg" xmlns:xlink="http://www.w3.org/1999/xlink" xmlns:sodipodi="http://sodipodi.sourceforge.net/DTD/sodipodi-0.dtd" xmlns:inkscape="http://www.inkscape.org/namespaces/inkscape" width="427.58685" height="367.71054" id="svg3953" version="1.1" inkscape:version="0.48.2 r9819" sodipodi:docname="hard-hat.svg" viewBox="0 0 427.58685 367.71054" preserveAspectRatio="xMinYMin meet">
  <defs id="defs3955">
    <linearGradient id="linearGradient4957">
      <stop style="stop-color:#ffff00;stop-opacity:1;" offset="0" id="stop4959"/>
      <stop style="stop-color:#ffff00;stop-opacity:0;" offset="1" id="stop4961"/>
    </linearGradient>
    <radialGradient inkscape:collect="always" xlink:href="#linearGradient4957" id="radialGradient4963" cx="422.72424" cy="250.33261" fx="422.72424" fy="250.33261" r="213.79343" gradientTransform="matrix(1.2499984,1.1313965,-0.49090853,0.54236947,-213.7208,-448.18622)" gradientUnits="userSpaceOnUse"/>
  </defs>
  <sodipodi:namedview inkscape:document-units="px" pagecolor="#ffffff" bordercolor="#666666" borderopacity="1.0" inkscape:pageopacity="0.0" inkscape:pageshadow="2" inkscape:zoom="1" inkscape:cx="253.20058" inkscape:cy="184.34027" inkscape:current-layer="layer2" id="namedview3957" showgrid="true" units="px" inkscape:window-width="1268" inkscape:window-height="774" inkscape:window-x="1788" inkscape:window-y="160" inkscape:window-maximized="0" inkscape:snap-grids="false" fit-margin-top="0" fit-margin-left="0" fit-margin-right="0" fit-margin-bottom="0">
    <inkscape:grid type="xygrid" id="grid3962" empspacing="5" visible="true" enabled="true" snapvisiblegridlinesonly="true" spacingx="10px" spacingy="10px"/>
  </sodipodi:namedview>
  <metadata id="metadata3959">
    <rdf:RDF>
      <cc:Work rdf:about="">
        <dc:format>image/svg+xml</dc:format>
        <dc:type rdf:resource="http://purl.org/dc/dcmitype/StillImage"/>
        <dc:title/>
      </cc:Work>
    </rdf:RDF>
  </metadata>
  <g inkscape:groupmode="layer" id="layer2" inkscape:label="me" transform="translate(-236.79942,-106.62973)"/>
  <path style="fill:url(#radialGradient4963);fill-opacity:1;stroke:#000000;stroke-width:3;stroke-linecap:butt;stroke-linejoin:miter;stroke-miterlimit:4;stroke-opacity:1;stroke-dasharray:none" d="M 22.20058,132.37027 C 9.8357002,148.09541 -2.1029498,162.52828 2.5149302,183.50662 13.45231,212.12327 35.93811,233.09681 58.20058,253.37027 c 34.82091,27.09517 78.90913,38.56951 118.68926,56.55174 25.58905,14.95691 53.77782,25.6047 80.35807,39.41165 26.43487,1.97873 49.94987,20.50924 76.5867,16.24045 28.87868,-6.89495 52.57479,-22.5033 72.86472,-43.3705 22.02224,-18.08752 26.28463,-52.80247 7.60183,-74.45437 -10.98271,-22.506 -51.52735,-30.80991 -40.90751,-61.54009 -10.57412,-24.10088 -9.49334,-52.34413 -19.66753,-77.05484 C 333.37803,88.859077 324.45881,56.161277 296.18389,44.246737 274.74499,21.755517 241.49106,16.568597 213.09693,5.2148171 182.94859,-0.96368294 148.40795,0.92806706 119.60562,8.2047771 92.75538,21.867787 68.78385,41.069867 52.36106,66.615547 37.25121,84.932797 23.18609,108.29691 22.20058,132.37027 z" id="path4378" inkscape:connector-curvature="0"/>
  <path style="fill:none;stroke:#000000;stroke-width:3;stroke-linecap:butt;stroke-linejoin:miter;stroke-miterlimit:4;stroke-opacity:1;stroke-dasharray:none" d="m 233.20058,338.37027 c 19.15268,-9.16716 38.28029,-18.64442 56.06736,-30.24199 10.087,-8.74425 20.62815,-16.6972 31.93724,-23.78628 16.15727,-11.56019 29.79157,-26.20663 45.66706,-38.08562 7.48881,-9.06399 13.60278,-18.69523 15.18237,-30.2264 -0.46017,-1.73283 -2.71499,1.9452 -2.85403,1.34029" id="path4382" inkscape:connector-curvature="0"/>
  <path style="fill:none;stroke:#000000;stroke-width:3;stroke-linecap:butt;stroke-linejoin:miter;stroke-miterlimit:4;stroke-opacity:1;stroke-dasharray:none" d="m 82.20058,52.370267 c 15.44907,-0.31692 27.03838,-13.44755 42.50725,-14.00405 27.18261,-3.89381 56.24022,1.39661 78.98503,17.23844 19.56571,13.59357 38.55733,28.68646 52.41258,48.323213 7.91843,11.30523 18.17377,20.88478 24.29614,33.41093 5.87072,10.32772 13.13491,19.87648 17.05285,31.23171 3.71489,10.49685 10.40321,19.47938 14.81059,29.59989 l 0.93556,1.19987" id="path4384" inkscape:connector-curvature="0"/>
  <path style="fill:none;stroke:#000000;stroke-width:3;stroke-linecap:butt;stroke-linejoin:miter;stroke-miterlimit:4;stroke-opacity:1;stroke-dasharray:none" d="m 126.20058,10.370267 c 17.727,2.50274 35.84663,-0.3887799 53.58418,1.98313 11.98943,2.03244 24.40942,4.0575 35.78518,8.29663 11.72407,5.35625 23.63839,11.63776 32.09843,21.48277 10.02048,9.96652 22.51101,15.97278 33.12505,24.97505 10.87027,9.13367 21.14527,18.75063 28.52624,31.09515 5.51824,14.805913 17.19652,26.404583 22.70137,41.295123 6.10167,10.94645 5.38887,34.70021 2.17955,40.87215" id="path4386" inkscape:connector-curvature="0"/>
</svg>
