<?xml version="1.0" encoding="UTF-8" standalone="no"?>
<!-- Created with Inkscape (http://www.inkscape.org/) -->
<svg xmlns:dc="http://purl.org/dc/elements/1.1/" xmlns:cc="http://creativecommons.org/ns#" xmlns:rdf="http://www.w3.org/1999/02/22-rdf-syntax-ns#" xmlns:svg="http://www.w3.org/2000/svg" xmlns="http://www.w3.org/2000/svg" xmlns:xlink="http://www.w3.org/1999/xlink" xmlns:sodipodi="http://sodipodi.sourceforge.net/DTD/sodipodi-0.dtd" xmlns:inkscape="http://www.inkscape.org/namespaces/inkscape" width="324.93878" height="278.24927" id="svg3953" version="1.1" inkscape:version="0.48.2 r9819" sodipodi:docname="trilby.svg" viewBox="0 0 324.93878 278.24927" preserveAspectRatio="xMinYMin meet">
  <defs id="defs3955">
    <linearGradient id="linearGradient5634">
      <stop style="stop-color:#a05a2c;stop-opacity:1;" offset="0" id="stop5636"/>
      <stop style="stop-color:#a05a2c;stop-opacity:0.02362205;" offset="1" id="stop5638"/>
    </linearGradient>
    <linearGradient id="linearGradient5626">
      <stop style="stop-color:#000000;stop-opacity:1;" offset="0" id="stop5628"/>
      <stop style="stop-color:#000000;stop-opacity:0;" offset="1" id="stop5630"/>
    </linearGradient>
    <radialGradient inkscape:collect="always" xlink:href="#linearGradient5634" id="radialGradient5640" cx="363.02606" cy="207.18553" fx="363.02606" fy="207.18553" r="160.96938" gradientTransform="matrix(1.3627339,0.90203586,-0.57532499,0.86916155,-12.482859,-300.35469)" gradientUnits="userSpaceOnUse"/>
  </defs>
  <sodipodi:namedview inkscape:document-units="px" pagecolor="#ffffff" bordercolor="#666666" borderopacity="1.0" inkscape:pageopacity="0.0" inkscape:pageshadow="2" inkscape:zoom="2.9648438" inkscape:cx="50.75369" inkscape:cy="193.60777" inkscape:current-layer="layer3" id="namedview3957" showgrid="true" units="px" inkscape:window-width="1326" inkscape:window-height="927" inkscape:window-x="2168" inkscape:window-y="310" inkscape:window-maximized="0" inkscape:snap-grids="false" fit-margin-top="0" fit-margin-left="0" fit-margin-right="0" fit-margin-bottom="0">
    <inkscape:grid type="xygrid" id="grid3962" empspacing="5" visible="true" enabled="true" snapvisiblegridlinesonly="true" spacingx="10px" spacingy="10px"/>
  </sodipodi:namedview>
  <metadata id="metadata3959">
    <rdf:RDF>
      <cc:Work rdf:about="">
        <dc:format>image/svg+xml</dc:format>
        <dc:type rdf:resource="http://purl.org/dc/dcmitype/StillImage"/>
        <dc:title/>
      </cc:Work>
    </rdf:RDF>
  </metadata>
  <g inkscape:groupmode="layer" id="layer3" inkscape:label="me" transform="translate(-200.55667,-68.060902)">
    <g id="g7855">
      <path sodipodi:nodetypes="cccccccccccccccccc" inkscape:connector-curvature="0" id="path5070" d="m 366.25767,69.754601 c -24.32126,-1.74989 -47.1427,8.815991 -70.63831,13.209149 -17.17026,3.588923 -34.66883,14.057444 -36.74056,33.05375 -4.69978,14.29587 -9.47894,28.7913 -9.64567,43.95183 -10.95119,17.28919 -36.07921,20.93377 -43.89491,41.63371 -8.74778,19.41325 1.64735,40.82082 11.84532,57.46796 20.27266,29.93618 50.1471,54.90683 86.01749,62.93422 17.1332,6.12225 33.84284,15.9894 52.62614,15.13375 22.21314,6.73342 46.38576,10.17888 69.06063,5.55246 3.86613,-0.76903 24.57539,-4.22517 24.57539,-4.22517 14.91986,-10.87914 35.2212,-14.16159 48.22697,-28.96218 19.30464,-14.87176 33.6608,-42.57678 22.25495,-66.33196 -10.56893,-17.53638 -27.6904,-29.58702 -41.34807,-44.57508 -6.2979,-6.92254 -14.06588,-12.81129 -19.43916,-20.38406 -11.34335,-22.18495 -23.96501,-44.01192 -30.29359,-68.2785 -1.3658,-3.70952 -2.09255,-8.12901 -5.9521,-11.878498 -9.8448,-16.728629 -27.43224,-29.865231 -46.93037,-27.217011 -4.05781,-0.378527 -8.11433,-0.774344 -12.17814,-1.08437" style="fill:url(#radialGradient5640);fill-opacity:1;stroke:#000000;stroke-width:3;stroke-linecap:butt;stroke-linejoin:miter;stroke-miterlimit:4;stroke-opacity:1;stroke-dasharray:none"/>
      <path inkscape:connector-curvature="0" id="path5082" d="m 277.02066,91.663923 c 3.05001,1.315277 -0.37845,4.155114 0.20093,0.362794 4.57468,5.019823 11.34907,7.065129 16.55429,11.295493 6.59763,3.58545 13.70297,6.8998 21.39998,6.58283 6.56677,1.13608 13.21978,1.37591 19.84115,2.13984 5.31594,0.29761 10.17659,2.64296 15.40514,3.44193 6.94297,2.43276 12.78821,7.23399 19.62872,9.87043 6.80798,1.86243 13.1964,4.6879 20.00896,6.43434 4.23563,0.96184 12.93574,5.61683 13.39627,5.36295 8.01101,3.49268 17.42496,-0.63184 22.96071,-6.64773 0.5586,-3.3779 2.69516,-1.73531 1.80242,-5.17406 1.22311,0.84787 1.96879,-6.74158 1.62556,-9.40209 -0.0496,-2.54734 -0.17956,-4.72071 -0.41046,-0.88123 -0.14602,1.38354 -0.50348,3.0092 -1.85897,3.71436" style="fill:none;stroke:#000000;stroke-width:3;stroke-linecap:butt;stroke-linejoin:miter;stroke-miterlimit:4;stroke-opacity:1;stroke-dasharray:none"/>
      <path inkscape:connector-curvature="0" id="path5084" d="m 249.92081,161.67186 c 1.33605,11.25343 -4.28119,21.56121 -5.53959,32.37832 -0.0452,10.35797 -4.41877,20.33894 -3.94244,30.54488 4.1785,15.11837 19.8325,22.11462 32.17455,29.55467 11.65383,5.99064 23.38115,11.84424 35.16912,17.54477 11.68138,3.98952 24.42736,3.19003 36.03251,7.9837 11.31071,2.98812 23.01951,6.68025 34.8311,3.92111 11.95039,-2.71899 24.0735,-3.94695 36.27287,-4.32941 6.31818,-0.47094 13.00428,-1.25998 18.26594,-5.12231 -3.15344,2.34571 7.46689,-3.8396 9.80387,-4.00053 9.93065,-7.31306 17.06636,-17.49799 23.5813,-27.76007 4.94747,-8.42013 5.21849,-18.33797 5.46989,-27.80525 -2.14682,-9.57242 -8.19168,-18.01482 -9.08292,-27.98497 -0.93463,-7.90302 -4.21059,-1.28285 -0.001,-1.58889" style="fill:none;stroke:#000000;stroke-width:3;stroke-linecap:butt;stroke-linejoin:miter;stroke-miterlimit:4;stroke-opacity:1;stroke-dasharray:none"/>
      <path inkscape:connector-curvature="0" id="path5086" d="m 246.90972,203.07441 c 2.78138,5.25985 -2.56733,-1.597 0.79994,1.4767 6.16141,8.40044 14.25661,15.44241 22.35403,21.87907 10.74865,7.93441 22.46817,14.28805 34.77248,19.46023 17.32478,8.92107 37.25468,9.33863 56.27152,9.30767 7.64408,1.30311 17.30417,4.49341 23.04602,0.50717 7.74631,4.00822 16.67737,0.42787 25.02239,0.0188 9.29933,-3.22444 18.50752,-7.26856 27.00878,-12.28545 12.58566,-8.62882 24.22259,-20.42571 27.52361,-35.84755 -3.27492,-3.16304 5.9368,-15.0391 1.50555,-5.26942" style="fill:none;stroke:#000000;stroke-width:3;stroke-linecap:butt;stroke-linejoin:miter;stroke-miterlimit:4;stroke-opacity:1;stroke-dasharray:none"/>
      <path inkscape:connector-curvature="0" id="path5088" d="m 350.79246,108.22494 c -1.10396,-2.87387 3.01908,-2.33646 4.61093,-2.24493 4.87604,-1.54564 10.02677,-0.41948 15.0201,-0.83818 2.24276,0.60863 4.52204,1.03183 6.76165,1.51606 1.73946,1.1843 3.60868,2.13656 5.39805,3.24136 1.42777,1.29037 3.07961,2.09027 4.73673,3.03955 1.87687,1.17023 3.20998,2.95861 4.57119,4.64401 2.3157,2.48818 3.80925,5.58668 5.56981,8.4562 0.745,2.4103 -1.94733,3.18401 -3.76036,2.51122" style="fill:none;stroke:#000000;stroke-width:3;stroke-linecap:butt;stroke-linejoin:miter;stroke-miterlimit:4;stroke-opacity:1;stroke-dasharray:none"/>
    </g>
  </g>
</svg>
